# xmcd
#
# Track frame offsets:
#	150
#	15675
#	26775
#	40462
#	55537
#	72975
#	81037
#	94425
#	114225
#	126562
#	136387
#	149925
#	162825
#	177975
#	189075
#	200925
#	208237
#	218250
#	231562
#	246562
#
# Disc length: 3549 seconds
#
# Revision: 1
# Processed by: cddbd v1.4PL0 Copyright (c) Steve Scherf et al.
# Submitted via: CDmax 1.8
#
DISCID=390ddb14
DTITLE=Ray Mason Band - Between Blue and Okay
DYEAR=1996
DGENRE=Rock
TTITLE0=Between Blue and Okay
TTITLE1=Always Stay
TTITLE2=Elaine
TTITLE3=It's Heartbreak That Sells
TTITLE4=Lesley-Ann
TTITLE5=Since Him
TTITLE6=Make Believe
TTITLE7=She's Wearing Her Hair Like Donna Reed
TTITLE8=The Invisible Woman
TTITLE9=A String of Failures
TTITLE10=We Don't Get Along Anymore
TTITLE11=Angeline
TTITLE12=I'm Only Human
TTITLE13=Remarkable Ease
TTITLE14=I Wanna Be a Holiday
TTITLE15=Cats
TTITLE16=Treatment I Don't Need
TTITLE17=When I Meet You On the Moon
TTITLE18=All I Want Is A Little Revenge
TTITLE19=Never Was There
EXTD=
EXTT0=
EXTT1=
EXTT2=
EXTT3=
EXTT4=
EXTT5=
EXTT6=
EXTT7=
EXTT8=
EXTT9=
EXTT10=
EXTT11=
EXTT12=
EXTT13=
EXTT14=
EXTT15=
EXTT16=
EXTT17=
EXTT18=
EXTT19=
PLAYORDER=
